HIERARCHY
ROOT Hips
{
	OFFSET 0.000000 0.000000 0.000000
	CHANNELS 6 Xposition Yposition Zposition Zrotation Yrotation Xrotation 
	JOINT LHipJoint
	{
		OFFSET 0.000000 0.000000 0.000000
		CHANNELS 3 Zrotation Yrotation Xrotation
		JOINT LeftUpLeg
		{
			OFFSET 1.363060 -1.794630 0.839290
			CHANNELS 3 Zrotation Yrotation Xrotation
			JOINT LeftLeg
			{
				OFFSET 2.448110 -6.726130 0.000000
				CHANNELS 3 Zrotation Yrotation Xrotation
				JOINT LeftFoot
				{
					OFFSET 2.562200 -7.039590 0.000000
					CHANNELS 3 Zrotation Yrotation Xrotation
					JOINT LeftToeBase
					{
						OFFSET 0.157640 -0.433110 2.322550
						CHANNELS 3 Zrotation Yrotation Xrotation
						End Site
						{
							OFFSET 0.000000 0.000000 0.000000
						}
					}
				}
			}
		}
	}
	JOINT RHipJoint
	{
		OFFSET 0.000000 0.000000 0.000000
		CHANNELS 3 Zrotation Yrotation Xrotation
		JOINT RightUpLeg
		{
			OFFSET -1.305520 -1.794630 0.839290
			CHANNELS 3 Zrotation Yrotation Xrotation
			JOINT RightLeg
			{
				OFFSET -2.542530 -6.985550 0.000000
				CHANNELS 3 Zrotation Yrotation Xrotation
				JOINT RightFoot
				{
					OFFSET -2.568260 -7.056230 0.000000
					CHANNELS 3 Zrotation Yrotation Xrotation
					JOINT RightToeBase
					{
						OFFSET -0.164730 -0.452590 2.363150
						CHANNELS 3 Zrotation Yrotation Xrotation
						End Site
						{
							OFFSET 0.000000 0.000000 0.000000
						}
					}
				}
			}
		}
	}
	JOINT LowerBack
	{
		OFFSET 0.000000 0.000000 0.000000
		CHANNELS 3 Zrotation Yrotation Xrotation
		JOINT Spine
		{
			OFFSET 0.028270 2.035590 -0.193380
			CHANNELS 3 Zrotation Yrotation Xrotation
			JOINT Spine1
			{
				OFFSET 0.056720 2.048850 -0.042750
				CHANNELS 3 Zrotation Yrotation Xrotation
				JOINT Neck
				{
					OFFSET 0.000000 0.000000 0.000000
					CHANNELS 3 Zrotation Yrotation Xrotation
					JOINT Neck1
					{
						OFFSET -0.054170 1.746240 0.172020
						CHANNELS 3 Zrotation Yrotation Xrotation
						JOINT Head
						{
							OFFSET 0.104070 1.761360 -0.123970
							CHANNELS 3 Zrotation Yrotation Xrotation
							End Site
							{
								OFFSET 0.000000 0.000000 0.000000
							}
						}
					}
				}
				JOINT LeftShoulder
				{
					OFFSET 0.000000 0.000000 0.000000
					CHANNELS 3 Zrotation Yrotation Xrotation
					JOINT LeftArm
					{
						OFFSET 3.362410 1.200890 -0.311210
						CHANNELS 3 Zrotation Yrotation Xrotation
						JOINT LeftForeArm
						{
							OFFSET 4.983000 -0.000000 -0.000000
							CHANNELS 3 Zrotation Yrotation Xrotation
							JOINT LeftHand
							{
								OFFSET 3.483560 -0.000000 -0.000000
								CHANNELS 3 Zrotation Yrotation Xrotation
								JOINT LeftFingerBase
								{
									OFFSET 0.000000 0.000000 0.000000
									CHANNELS 3 Zrotation Yrotation Xrotation
									JOINT LeftHandIndex1
									{
										OFFSET 0.715260 -0.000000 -0.000000
										CHANNELS 3 Zrotation Yrotation Xrotation
										End Site
										{
											OFFSET 0.000000 0.000000 0.000000
										}
									}
								}
								JOINT LThumb
								{
									OFFSET 0.000000 0.000000 0.000000
									CHANNELS 3 Zrotation Yrotation Xrotation
									End Site
									{
										OFFSET 0.000000 0.000000 0.000000
									}
								}
							}
						}
					}
				}
				JOINT RightShoulder
				{
					OFFSET 0.000000 0.000000 0.000000
					CHANNELS 3 Zrotation Yrotation Xrotation
					JOINT RightArm
					{
						OFFSET -3.136600 1.374050 -0.404650
						CHANNELS 3 Zrotation Yrotation Xrotation
						JOINT RightForeArm
						{
							OFFSET -5.241900 -0.000000 -0.000000
							CHANNELS 3 Zrotation Yrotation Xrotation
							JOINT RightHand
							{
								OFFSET -3.444170 -0.000000 -0.000000
								CHANNELS 3 Zrotation Yrotation Xrotation
								JOINT RightFingerBase
								{
									OFFSET 0.000000 0.000000 0.000000
									CHANNELS 3 Zrotation Yrotation Xrotation
									JOINT RightHandIndex1
									{
										OFFSET -0.622530 -0.000000 -0.000000
										CHANNELS 3 Zrotation Yrotation Xrotation
										End Site
										{
											OFFSET 0.000000 0.000000 0.000000
										}
									}
								}
								JOINT RThumb
								{
									OFFSET 0.000000 0.000000 0.000000
									CHANNELS 3 Zrotation Yrotation Xrotation
									End Site
									{
										OFFSET 0.000000 0.000000 0.000000
									}
								}
							}
						}
					}
				}
			}
		}
	}
}
MOTION
Frames: 11
Frame Time: 0.008333
-0.934242 17.969716 6.060467 -2.644523 2.856906 -5.871699 0.593970 5.522696 5.184552 -10.543710 -3.892044 21.279357 -1.013510 -8.480595 -19.979496 -3.635251 18.792415 12.552116 0.506600 -4.562800 -12.665600 -0.330182 -5.313414 4.277817 14.213568 -9.351995 17.180773 1.042458 6.366373 -12.717609 3.409396 -15.062509 -7.078645 -0.100000 2.039700 -5.615300 2.586900 2.040263 -1.133635 8.635242 0.814964 25.394812 -3.679296 1.694313 -10.514054 -15.960174 -15.107727 -18.763431 12.497680 -19.796805 19.781818 2.692400 -8.903100 10.176500 2.702934 -7.589090 0.013421 -48.616172 7.320789 72.238397 146.902418 -38.292775 -108.188945 -0.958051 0.161218 -33.614078 14.767065 -15.785545 -4.474900 -7.125000 0.000000 0.000000 -8.200200 13.104000 6.192700 -5.314948 7.768416 1.610388 51.734804 -8.698217 60.462477 -111.207163 50.994640 -76.922544 0.836746 0.310143 -15.416522 -21.238561 -32.332608 12.224000 7.125000 0.000000 0.000000 12.385000 -63.771800 -5.679700 
-0.941476 17.986795 5.991044 -2.592845 3.315239 -5.870417 0.558495 5.544129 5.225139 -10.509933 -3.912097 20.888700 -0.992334 -8.535013 -20.160519 -3.509365 18.682138 13.306120 0.498400 -4.525900 -12.561200 -0.330037 -5.306443 4.303318 14.217295 -9.609331 16.905600 1.040204 6.420928 -12.854820 3.526699 -15.495395 -6.956579 -0.091400 1.950200 -5.368000 2.819102 2.147207 0.175819 8.699468 0.936773 26.322049 -3.718508 1.795265 -10.751533 -16.555608 -16.024033 -17.454585 13.439555 -20.979808 16.754565 2.956200 -9.568300 9.466400 2.755086 -7.444299 -0.093887 -48.939239 6.228137 72.045796 147.140787 -38.090947 -108.330600 -0.966830 0.164114 -33.066231 14.962688 -15.925201 -4.574800 -7.125000 0.000000 0.000000 -8.064700 12.942400 6.115800 -5.392964 7.499843 1.500342 51.457933 -6.069671 58.212366 -106.072000 52.079022 -71.454340 1.000366 0.133703 -13.110146 -18.782387 -32.676854 10.898900 7.125000 0.000000 0.000000 15.224500 -63.304500 -6.842900 
-0.949111 18.004980 5.929558 -2.561879 3.807652 -5.676990 0.509285 5.561490 5.257078 -10.474390 -4.068999 20.332427 -0.978954 -8.565673 -20.301125 -3.404533 18.636130 13.988969 0.539900 -4.707800 -13.077100 -0.318307 -5.282236 4.312600 14.287559 -9.854153 16.436744 1.043540 6.446937 -12.921302 3.634568 -15.888286 -6.851785 -0.087300 1.905700 -5.245100 3.184826 2.250054 1.113788 8.697677 1.083795 27.068119 -3.831325 1.886604 -10.769866 -17.474983 -17.007092 -15.948477 14.932288 -22.222213 13.768379 3.398000 -10.261200 8.869400 2.805165 -7.311657 -0.187193 -49.189547 4.981534 71.801402 147.246480 -37.997275 -108.387885 -0.969025 0.172563 -32.600517 14.968816 -15.997620 -4.597400 -7.125000 0.000000 0.000000 -8.060500 12.865700 6.125600 -5.430270 7.251818 1.385064 50.878563 -3.327158 56.067469 -101.141429 53.017744 -66.173012 1.131884 0.041480 -12.547586 -17.903373 -33.682257 10.696700 7.125000 0.000000 0.000000 16.844500 -63.935000 -7.839500 
-0.957148 18.025274 5.881836 -2.554789 4.325907 -5.243541 0.455957 5.570332 5.275532 -10.437579 -4.355250 19.571597 -0.977270 -8.565722 -20.376948 -3.320464 18.639414 14.594875 0.619000 -5.034900 -14.008000 -0.276800 -5.242573 4.310517 14.421042 -10.089676 15.714408 1.054211 6.425128 -12.866219 3.710762 -16.157249 -6.817429 -0.085700 1.888500 -5.197500 3.608636 2.363264 1.611594 8.783987 1.247564 27.538666 -4.016307 1.976045 -10.619125 -18.471637 -17.993789 -14.044105 16.485137 -23.433341 10.733569 3.878700 -10.993500 8.254200 2.812870 -7.197672 -0.266686 -49.340569 3.634329 71.515687 147.179656 -38.047779 -108.334878 -0.963378 0.181266 -32.372725 14.856976 -15.987542 -4.558900 -7.125000 0.000000 0.000000 -8.139200 12.885500 6.183300 -5.442875 7.033571 1.258123 50.134492 -0.617104 53.704083 -95.930170 53.900750 -60.665385 1.245510 -0.053041 -12.366722 -16.731624 -34.370602 10.208700 7.125000 0.000000 0.000000 18.588200 -64.176400 -8.782200 
-0.967497 18.047879 5.845869 -2.538682 4.790688 -4.648915 0.394357 5.570791 5.283293 -10.386089 -4.637679 18.674055 -0.980084 -8.546691 -20.395293 -3.238518 18.570649 15.065029 0.630800 -5.082000 -14.142500 -0.224790 -5.192032 4.302243 14.586597 -10.203597 14.874486 1.067788 6.387004 -12.775643 3.758466 -16.325112 -6.893982 -0.071700 1.727400 -4.753000 4.061876 2.509028 1.827852 8.857463 1.468784 27.750372 -4.249937 2.076219 -10.471641 -19.157808 -18.929840 -12.021673 17.683098 -24.579315 7.941094 4.244300 -11.736300 7.640100 2.774178 -7.095294 -0.325766 -49.372470 2.268719 71.203653 146.904491 -38.279035 -108.144417 -0.949633 0.184854 -32.311604 14.811234 -15.832677 -4.499100 -7.125000 0.000000 0.000000 -8.174800 13.053000 6.181900 -5.433478 6.848754 1.124347 49.383951 2.011684 51.660164 -90.257552 54.719189 -54.957151 1.367492 -0.169205 -13.071646 -19.401652 -33.834788 11.640000 7.125000 0.000000 0.000000 14.724300 -64.198300 -6.920400 
-0.977945 18.068475 5.816734 -2.501032 5.277938 -4.027228 0.342005 5.565002 5.284167 -10.360581 -5.030466 17.802627 -0.990399 -8.507895 -20.359878 -3.172080 18.488136 15.401568 0.607200 -4.987800 -13.873700 -0.162240 -5.141736 4.292362 14.717990 -10.293804 14.042132 1.079748 6.348961 -12.686853 3.787174 -16.427106 -7.035401 -0.052400 1.477200 -4.062800 4.455330 2.644727 1.854354 9.011708 1.658751 27.821406 -4.464594 2.161234 -10.333333 -19.597289 -19.807780 -10.227148 18.498381 -25.649016 5.575910 4.482300 -12.447200 7.113200 2.701882 -6.997462 -0.368120 -49.423966 0.879107 70.774749 146.470329 -38.646341 -107.847318 -0.925757 0.192544 -32.446861 14.577377 -15.530363 -4.341300 -7.125000 0.000000 0.000000 -8.342300 13.387600 6.252100 -5.406474 6.678635 0.972137 48.479372 4.858994 48.466857 -83.367507 55.385855 -48.309542 1.425083 -0.335367 -8.878174 -15.200060 -34.146103 9.282700 7.125000 0.000000 0.000000 19.700100 -63.374000 -8.958100 
-0.986786 18.084449 5.792521 -2.480141 5.876452 -3.514686 0.306560 5.563327 5.284224 -10.335967 -5.542810 17.066678 -1.006369 -8.450295 -20.281200 -3.119404 18.425828 15.669271 0.626700 -5.065600 -14.095800 -0.100220 -5.093743 4.275244 14.834550 -10.499680 13.373883 1.086716 6.334641 -12.651945 3.832549 -16.596375 -7.179446 -0.044600 1.362900 -3.748000 4.920908 2.737628 1.857649 9.215303 1.798664 27.784955 -4.732193 2.209980 -10.247993 -19.849372 -20.625131 -8.632509 19.085901 -26.636504 3.485620 4.647200 -13.117000 6.638500 2.614875 -6.913113 -0.405394 -49.597429 -0.576955 70.342025 145.916234 -39.111199 -107.462008 -0.898930 0.203896 -32.559014 14.295178 -15.180598 -4.159300 -7.125000 0.000000 0.000000 -8.546000 13.772700 6.338000 -5.372389 6.525652 0.832448 47.604473 7.612936 45.476846 -76.187076 55.557562 -41.871563 1.428827 -0.481362 -6.396017 -13.070502 -34.251671 8.070500 7.125000 0.000000 0.000000 22.082400 -62.873400 -9.833600 
-0.998239 18.097711 5.772327 -2.452180 6.484845 -3.147132 0.285722 5.564681 5.278529 -10.316593 -5.981882 16.474366 -1.021072 -8.388854 -20.181543 -3.047442 18.299218 15.967558 0.676800 -5.260300 -14.652600 -0.048562 -5.048459 4.254647 14.941833 -10.647817 12.961706 1.089933 6.355668 -12.708168 3.913250 -16.915239 -7.417479 -0.039100 1.276800 -3.510700 5.388680 2.812714 1.978996 9.434973 1.934941 27.612931 -5.039217 2.240544 -10.283375 -20.044007 -21.353230 -7.005258 19.854432 -27.473469 1.321610 4.884300 -13.734500 6.145900 2.516702 -6.825392 -0.446476 -49.915378 -1.907971 70.077691 145.270268 -39.646726 -106.998395 -0.889201 0.214375 -32.329508 14.357933 -15.155697 -4.168300 -7.125000 0.000000 0.000000 -8.511100 13.791500 6.308200 -5.328268 6.392937 0.714875 46.971360 10.353453 42.540405 -68.878760 55.037266 -35.701631 1.398673 -0.602725 -5.574097 -11.415178 -34.496820 7.139300 7.125000 0.000000 0.000000 24.074900 -62.602600 -10.619700 
-1.014314 18.108662 5.755951 -2.375741 7.018150 -2.922509 0.285969 5.563499 5.262497 -10.355522 -6.287777 16.059669 -1.034771 -8.332654 -20.072100 -2.957218 18.110476 16.298800 0.724000 -5.436900 -15.159100 -0.000799 -5.013946 4.239234 14.979636 -10.651003 12.792386 1.090495 6.395946 -12.821446 4.014756 -17.325769 -7.730299 -0.034800 1.204400 -3.311300 5.658199 2.887859 2.183513 9.778626 2.047820 27.370004 -5.277040 2.270964 -10.361608 -20.354269 -21.966508 -5.456060 20.961099 -28.099962 -0.879256 5.239100 -14.266100 5.697100 2.413663 -6.719298 -0.494619 -50.373841 -3.004418 69.858916 144.620921 -40.173752 -106.523727 -0.888889 0.229003 -31.968298 14.461104 -15.345065 -4.248100 -7.125000 0.000000 0.000000 -8.447300 13.581500 6.297700 -5.287917 6.272069 0.627816 46.530937 13.267646 39.498268 -61.681152 53.713811 -29.878263 1.368753 -0.711210 -4.796226 -8.704089 -34.550840 5.585900 7.125000 0.000000 0.000000 26.990500 -61.927400 -11.571100 
-1.031695 18.114489 5.744297 -2.298598 7.558437 -2.934126 0.311240 5.572322 5.251888 -10.420902 -6.518605 15.916577 -1.044859 -8.283828 -19.962774 -2.867951 17.884678 16.561257 0.746800 -5.520100 -15.398100 0.036176 -4.993190 4.225393 14.955956 -10.748179 12.901794 1.086333 6.451184 -12.959790 4.119334 -17.749445 -8.022073 -0.019500 0.901700 -2.478200 5.870025 2.919478 2.407418 10.188876 2.080477 27.229637 -5.462432 2.277935 -10.391152 -20.581831 -22.473053 -4.385052 22.032886 -28.546494 -2.795958 5.564400 -14.684500 5.354700 2.330679 -6.608521 -0.541475 -50.949921 -4.005601 69.462211 144.102358 -40.582191 -106.144711 -0.871241 0.250077 -32.209775 13.991809 -15.260250 -4.084300 -7.125000 0.000000 0.000000 -8.779900 13.699200 6.529500 -5.269608 6.149086 0.563028 46.280135 16.279378 36.138790 -55.153213 51.786981 -24.993497 1.319295 -0.886135 -2.722955 -11.309252 -34.791851 7.065000 7.125000 0.000000 0.000000 24.327800 -62.639500 -10.759500 
-1.048774 18.115292 5.737666 -2.322510 8.105728 -3.204331 0.373337 5.597439 5.250358 -10.417311 -6.682466 16.042751 -1.045876 -8.246985 -19.872766 -2.770801 17.602891 16.782147 0.759100 -5.564300 -15.525300 0.068476 -4.979481 4.208641 14.964584 -10.983430 13.296919 1.077379 6.522934 -13.119241 4.207163 -18.120415 -8.332494 -0.001400 0.244400 -0.671500 6.141149 2.889951 2.663561 10.722280 2.017461 27.152619 -5.669192 2.246428 -10.395309 -20.610955 -22.866401 -3.749890 22.772141 -28.857563 -4.320305 5.780200 -14.995400 5.078600 2.253312 -6.504207 -0.579983 -51.594153 -4.825024 69.052692 143.660120 -40.921216 -105.820448 -0.843666 0.267852 -32.728331 13.391351 -14.922080 -3.820200 -7.125000 0.000000 0.000000 -9.205600 14.088900 6.777600 -5.281885 6.018904 0.517861 46.211755 19.343391 32.763816 -49.564903 49.462614 -20.917270 1.279614 -1.029636 -0.241494 -11.590364 -34.578617 7.170000 7.125000 0.000000 0.000000 23.729400 -62.437000 -10.365400 
